<svg xmlns="http://www.w3.org/2000/svg" width="30.685" height="23.765" viewBox="0 0 30.685 23.765">
  <g id="Group_421" data-name="Group 421" transform="translate(0.745 0.524)" opacity="0.647">
    <g id="Group_422" data-name="Group 422" transform="translate(0 0.232)">
      <path id="Path_586" data-name="Path 586" d="M24.711,2.255A24.078,24.078,0,0,0,18.769.413a.09.09,0,0,0-.1.045,16.778,16.778,0,0,0-.74,1.52,22.223,22.223,0,0,0-6.673,0,15.369,15.369,0,0,0-.751-1.52.094.094,0,0,0-.1-.045A24.018,24.018,0,0,0,4.472,2.255a.087.087,0,0,0-.039.034A24.635,24.635,0,0,0,.121,18.9a.1.1,0,0,0,.038.068,24.2,24.2,0,0,0,7.289,3.684.1.1,0,0,0,.1-.033A17.323,17.323,0,0,0,9.041,20.2a.092.092,0,0,0-.051-.129,15.893,15.893,0,0,1-2.277-1.085.093.093,0,0,1-.009-.155c.153-.115.306-.234.452-.354a.089.089,0,0,1,.094-.013,17.263,17.263,0,0,0,14.67,0,.089.089,0,0,1,.1.012c.146.12.3.241.453.356a.093.093,0,0,1-.008.155,14.932,14.932,0,0,1-2.278,1.084.093.093,0,0,0-.049.13,19.441,19.441,0,0,0,1.49,2.424.093.093,0,0,0,.1.035,24.116,24.116,0,0,0,7.3-3.684.094.094,0,0,0,.038-.067A24.474,24.474,0,0,0,24.749,2.29a.076.076,0,0,0-.038-.035M9.755,15.587a2.806,2.806,0,0,1-2.623-2.942A2.79,2.79,0,0,1,9.755,9.7a2.775,2.775,0,0,1,2.623,2.942,2.79,2.79,0,0,1-2.623,2.942m9.7,0a2.806,2.806,0,0,1-2.623-2.942A2.79,2.79,0,0,1,19.454,9.7a2.775,2.775,0,0,1,2.623,2.942,2.783,2.783,0,0,1-2.623,2.942" transform="translate(-0.001 -0.411)" fill="none" stroke="#f5f6fa" stroke-width="1.5"/>
    </g>
  </g>
</svg>
