<svg xmlns="http://www.w3.org/2000/svg" width="27.536" height="27.508" viewBox="0 0 27.536 27.508">
  <g id="Group_314" data-name="Group 314" transform="translate(0 -40)" opacity="0.647">
    <g id="Group_428" data-name="Group 428" transform="translate(0 40)">
      <path id="Path_566" data-name="Path 566" d="M14.345,0l-1.29,0-.078.008-.005,0a13.768,13.768,0,0,0,.06,27.492l1.322,0A13.764,13.764,0,0,0,14.345,0M7.528,21.2A16.4,16.4,0,0,0,10.8,25.7a12.457,12.457,0,0,1-5.635-3.149A14.974,14.974,0,0,1,7.528,21.2m-.215-6.267,5.725,0v3.443a16.925,16.925,0,0,0-4.744.945,15.276,15.276,0,0,1-.981-4.385m5.725,4.9v5.9a15.334,15.334,0,0,1-4.151-5.073,15.458,15.458,0,0,1,4.151-.823m-7.186-4.9a16.74,16.74,0,0,0,1.09,4.932,16.455,16.455,0,0,0-2.762,1.6,12.18,12.18,0,0,1-2.664-6.53ZM6.687,8.35a16.878,16.878,0,0,0-.876,5.124l-4.349,0A12.183,12.183,0,0,1,3.788,6.561a16.729,16.729,0,0,0,2.9,1.788m6.352,1.637V13.47l-5.77,0a15.431,15.431,0,0,1,.763-4.545,16.684,16.684,0,0,0,5.007,1.058M4.712,5.432a12.382,12.382,0,0,1,6.1-3.622A16.7,16.7,0,0,0,7.218,6.986,15.244,15.244,0,0,1,4.712,5.432m8.327-3.646v6.74a15.226,15.226,0,0,1-4.484-.959,15.236,15.236,0,0,1,4.484-5.781M26.021,14.921A12.211,12.211,0,0,1,23.5,21.289a16.434,16.434,0,0,0-2.971-1.627,16.781,16.781,0,0,0,1.013-4.738ZM14.5,19.812a15.505,15.505,0,0,1,4.088.69A15.316,15.316,0,0,1,14.5,25.611Zm0-1.457V14.927l5.582,0a15.3,15.3,0,0,1-.92,4.232,16.943,16.943,0,0,0-4.662-.8m8.034,4.039a12.4,12.4,0,0,1-5.988,3.354,16.385,16.385,0,0,0,3.421-4.742,14.979,14.979,0,0,1,2.567,1.388m-2.407-8.926-5.627,0V10a16.689,16.689,0,0,0,4.917-.9,15.442,15.442,0,0,1,.71,4.366m.143-6.272a16.666,16.666,0,0,0-3.73-5.431A12.332,12.332,0,0,1,22.984,5.6a15.284,15.284,0,0,1-2.717,1.59M14.5,8.544V1.9a15.216,15.216,0,0,1,4.414,5.831,15.223,15.223,0,0,1-4.414.811m11.578,4.919-4.493,0a16.9,16.9,0,0,0-.808-4.9,16.735,16.735,0,0,0,3.111-1.812,12.2,12.2,0,0,1,2.19,6.711" transform="translate(0 0)" fill="#f5f6fa"/>
    </g>
  </g>
</svg>
