<svg xmlns="http://www.w3.org/2000/svg" width="26" height="26" viewBox="0 0 26 26">
  <g id="Group_246" data-name="Group 246" transform="translate(0 -40)" opacity="0.647">
    <g id="Group_423" data-name="Group 423" transform="translate(0 40)">
      <path id="Path_550" data-name="Path 550" d="M19,0H7A7.008,7.008,0,0,0,0,7V19a7.008,7.008,0,0,0,7,7H19a7.008,7.008,0,0,0,7-7V7a7.008,7.008,0,0,0-7-7m5,19a5.006,5.006,0,0,1-5,5H7a5.006,5.006,0,0,1-5-5V7A5.006,5.006,0,0,1,7,2H19a5.006,5.006,0,0,1,5,5ZM13,7a6,6,0,1,0,6,6,6.006,6.006,0,0,0-6-6m0,10a4,4,0,1,1,4-4,4,4,0,0,1-4,4M21,6.5A1.5,1.5,0,1,1,19.5,5,1.5,1.5,0,0,1,21,6.5" fill="#f5f6fa"/>
    </g>
  </g>
</svg>
