<svg xmlns="http://www.w3.org/2000/svg" width="18.5" height="22.639" viewBox="0 0 18.5 22.639">
  <g id="Group_585" data-name="Group 585" transform="translate(-0.501 -0.213)">
    <g id="Group_586" data-name="Group 586">
      <path id="Path_616" data-name="Path 616" d="M6,11.625V5.85A3.85,3.85,0,0,1,9.85,2h5.775a3.85,3.85,0,0,1,3.85,3.85V7.625" transform="translate(-3.112 -1.037)" fill="none" stroke="#000c27" stroke-linecap="round" stroke-linejoin="round" stroke-width="1.5"/>
      <path id="Path_617" data-name="Path 617" d="M12,13.738V9.925A1.925,1.925,0,0,1,13.925,8h3.85A1.925,1.925,0,0,1,19.7,9.925v.813h2.706" transform="translate(-6.225 -4.15)" fill="none" stroke="#000c27" stroke-linecap="round" stroke-linejoin="round" stroke-width="1.5"/>
      <rect id="Rectangle_1746" data-name="Rectangle 1746" width="17" height="12" rx="4" transform="translate(1.251 10.101)" fill="none" stroke="#000c27" stroke-linecap="round" stroke-linejoin="round" stroke-width="1.5"/>
      <path id="Path_618" data-name="Path 618" d="M17.85,30a1.925,1.925,0,0,1,1.925,1.925V33.85H14V31.925A1.925,1.925,0,0,1,15.925,30Z" transform="translate(-7.262 -15.562)" fill="none" stroke="#000c27" stroke-linecap="round" stroke-linejoin="round" stroke-width="1.5"/>
    </g>
  </g>
</svg>
