<svg xmlns="http://www.w3.org/2000/svg" width="27.758" height="23.792" viewBox="0 0 27.758 23.792">
  <g id="Group_247" data-name="Group 247" transform="translate(0.034 -40.033)" opacity="0.647">
    <g id="Group_427" data-name="Group 427" transform="translate(0.227 39.766)">
      <path id="Path_551" data-name="Path 551" d="M10.907,23.792a.97.97,0,0,1-.379-.075.991.991,0,0,1-.613-.916V16.853a1,1,0,0,1,.289-.7l4.679-4.679L7.431,15.729A.992.992,0,0,1,6.406,15.7L.458,11.91a.991.991,0,0,1,.171-1.759L26.4.066a1,1,0,0,1,.991.159.99.99,0,0,1,.347.944L23.776,22.977a.993.993,0,0,1-1.42.71l-7.292-3.646L11.6,23.5a.977.977,0,0,1-.7.291m3.965-5.948a.987.987,0,0,1,.444.105l6.747,3.374L25.475,2.562l-22.3,8.728,3.8,2.423L20.328,6.079a.991.991,0,0,1,1.194,1.56L11.9,17.263v3.144l2.272-2.272a.984.984,0,0,1,.7-.291" transform="translate(-0.26 0.268)" fill="#f5f6fa"/>
    </g>
  </g>
</svg>
