<svg xmlns="http://www.w3.org/2000/svg" xmlns:xlink="http://www.w3.org/1999/xlink" width="29.2" height="24.556" viewBox="0 0 29.2 24.556">
  <defs>
    <clipPath id="clip-path">
      <rect id="Rectangle_1647" data-name="Rectangle 1647" width="29.2" height="24.556" fill="none" stroke="#f5f6fa" stroke-width="1"/>
    </clipPath>
  </defs>
  <g id="Group_248" data-name="Group 248" transform="translate(0 -40)" opacity="0.647">
    <g id="Group_248-2" data-name="Group 248" transform="translate(0 40)" clip-path="url(#clip-path)">
      <path id="Path_552" data-name="Path 552" d="M2.405,1.909A15.774,15.774,0,0,0,13.984,7.7c-.3-1.229-.323-4.563,2.015-5.953a6.091,6.091,0,0,1,3.2-1,5.387,5.387,0,0,1,3.949,1.737,12.1,12.1,0,0,0,3.473-1.32A5.294,5.294,0,0,1,24.3,4.144a10.189,10.189,0,0,0,3.081-.765,10.777,10.777,0,0,1-2.757,2.814c.823,7.377-5.789,16.548-15.192,16.548A17.11,17.11,0,0,1,.75,20.425a10.775,10.775,0,0,0,8.1-2.316,6.742,6.742,0,0,1-5.789-4.053c1.157.37,2.258.555,2.894,0A6.267,6.267,0,0,1,1.246,8.278a4.064,4.064,0,0,0,2.9,1.157A5.788,5.788,0,0,1,2.405,1.909Z" transform="translate(0.534 0.533)" fill="none" stroke="#f5f6fa" stroke-linecap="round" stroke-linejoin="round" stroke-width="1.5"/>
    </g>
  </g>
</svg>
